<svg width="24" height="24" viewBox="0 0 24 24" fill="none" xmlns="http://www.w3.org/2000/svg">
<path d="M9.18579 14.7858C9.96684 15.5668 11.2332 15.5668 12.0142 14.7858L16.95 9.85C17.3366 9.4634 17.3366 8.8366 16.95 8.45C16.5634 8.0634 15.9366 8.0634 15.55 8.45L10.6 13.4L8.45 11.25C8.0634 10.8634 7.4366 10.8634 7.05 11.25C6.6634 11.6366 6.6634 12.2634 7.05 12.65L9.18579 14.7858ZM7 21C4.79086 21 3 19.2091 3 17V7C3 4.79086 4.79086 3 7 3H17C19.2091 3 21 4.79086 21 7V17C21 19.2091 19.2091 21 17 21H7Z" fill="#4459F6"/>
</svg>
