<svg width="18" height="18" viewBox="0 0 18 18" fill="none" xmlns="http://www.w3.org/2000/svg">
<path d="M6.18579 11.7858C6.96684 12.5668 8.23316 12.5668 9.01421 11.7858L13.95 6.85C14.3366 6.4634 14.3366 5.8366 13.95 5.45C13.5634 5.0634 12.9366 5.0634 12.55 5.45L7.6 10.4L5.45 8.25C5.0634 7.8634 4.4366 7.8634 4.05 8.25C3.6634 8.6366 3.6634 9.2634 4.05 9.65L6.18579 11.7858ZM4 18C1.79086 18 0 16.2091 0 14V4C0 1.79086 1.79086 0 4 0H14C16.2091 0 18 1.79086 18 4V14C18 16.2091 16.2091 18 14 18H4Z" fill="#FF522B"/>
</svg>
