<svg width="9" height="9" viewBox="0 0 9 9" fill="none" xmlns="http://www.w3.org/2000/svg">
<path d="M7.92365 6.89866L5.29373 4.26874L7.92365 1.63882C8.20759 1.35488 8.20759 0.897765 7.92365 0.61383C7.63972 0.329895 7.1826 0.329895 6.89866 0.61383L4.26874 3.24375L1.63882 0.61383C1.35488 0.329895 0.897765 0.329895 0.61383 0.61383C0.329895 0.897765 0.329895 1.35488 0.61383 1.63882L3.24375 4.26874L0.61383 6.89866C0.329895 7.1826 0.329895 7.63972 0.61383 7.92365C0.897765 8.20759 1.35488 8.20759 1.63882 7.92365L4.26874 5.29373L6.89866 7.92365C7.1826 8.20759 7.63972 8.20759 7.92365 7.92365C8.20557 7.63972 8.20557 7.18059 7.92365 6.89866Z" fill="white"/>
<path d="M7.92365 6.89866L5.29373 4.26874L7.92365 1.63882C8.20759 1.35488 8.20759 0.897765 7.92365 0.61383C7.63972 0.329895 7.1826 0.329895 6.89866 0.61383L4.26874 3.24375L1.63882 0.61383C1.35488 0.329895 0.897765 0.329895 0.61383 0.61383C0.329895 0.897765 0.329895 1.35488 0.61383 1.63882L3.24375 4.26874L0.61383 6.89866C0.329895 7.1826 0.329895 7.63972 0.61383 7.92365C0.897765 8.20759 1.35488 8.20759 1.63882 7.92365L4.26874 5.29373L6.89866 7.92365C7.1826 8.20759 7.63972 8.20759 7.92365 7.92365C8.20557 7.63972 8.20557 7.18059 7.92365 6.89866Z" fill="url(#paint0_linear_216_832)"/>
<defs>
<linearGradient id="paint0_linear_216_832" x1="4.26874" y1="0.400879" x2="4.26874" y2="8.1366" gradientUnits="userSpaceOnUse">
<stop stop-color="white"/>
<stop offset="1" stop-color="white" stop-opacity="0"/>
</linearGradient>
</defs>
</svg>
