<svg width="24" height="24" viewBox="0 0 24 24" fill="none" xmlns="http://www.w3.org/2000/svg">
<path d="M5 20C3.34315 20 2 18.6569 2 17V7C2 5.34315 3.34315 4 5 4H19C20.6569 4 22 5.34315 22 7V17C22 18.6569 20.6569 20 19 20H5ZM11.47 12.6688C11.7943 12.8714 12.2057 12.8714 12.53 12.6688L19.6014 8.2491C19.8494 8.09414 20 7.82238 20 7.53C20 6.86395 19.2674 6.45789 18.7026 6.8109L12 11L5.29744 6.8109C4.73263 6.45789 4 6.86395 4 7.53C4 7.82238 4.15062 8.09414 4.39856 8.2491L11.47 12.6688Z" fill="#34414D" fill-opacity="0.6"/>
</svg>
