<svg width="21" height="15" viewBox="0 0 21 15" fill="none" xmlns="http://www.w3.org/2000/svg">
<path d="M10.5 14.4998C8.85987 14.5202 7.2367 14.1662 5.754 13.4648C4.60469 12.904 3.57265 12.1295 2.713 11.1828C1.80243 10.2039 1.08547 9.06142 0.6 7.81577L0.5 7.49977L0.605 7.18377C1.09082 5.9392 1.80624 4.79703 2.714 3.81677C3.57334 2.87008 4.60504 2.09563 5.754 1.53477C7.23671 0.833354 8.85988 0.479376 10.5 0.499765C12.1401 0.479411 13.7633 0.833387 15.246 1.53477C16.3953 2.0955 17.4274 2.86996 18.287 3.81677C19.1993 4.79432 19.9165 5.93713 20.4 7.18377L20.5 7.49977L20.395 7.81577C18.8262 11.8996 14.8742 14.5691 10.5 14.4998ZM10.5 2.49977C7.09587 2.39309 3.97142 4.37486 2.617 7.49977C3.9712 10.6249 7.09579 12.6067 10.5 12.4998C13.9041 12.6062 17.0284 10.6245 18.383 7.49977C17.0304 4.37334 13.9047 2.39084 10.5 2.49977ZM10.5 10.4998C9.05733 10.5093 7.80937 9.49713 7.52097 8.08354C7.23256 6.66995 7.98427 5.24979 9.31538 4.69343C10.6465 4.13707 12.1852 4.5999 12.9885 5.79827C13.7919 6.99664 13.6354 8.59584 12.615 9.61577C12.0563 10.181 11.2948 10.4993 10.5 10.4998Z" fill="#646464"/>
</svg>
