<svg width="21" height="19" viewBox="0 0 21 19" fill="none" xmlns="http://www.w3.org/2000/svg">
<path d="M18.47 18.6915L15.114 15.3355C13.6661 15.9947 12.0908 16.3269 10.5 16.3085C8.85988 16.3289 7.23671 15.9749 5.754 15.2735C4.60468 14.7127 3.57264 13.9383 2.713 12.9915C1.80049 12.0134 1.0833 10.8698 0.6 9.6225L0.5 9.3085L0.605 8.9925C1.32781 7.14879 2.54426 5.53967 4.121 4.3415L1.5 1.7205L2.913 0.308502L19.882 17.2775L18.472 18.6915H18.47ZM5.536 5.7575C4.25792 6.65342 3.24865 7.88121 2.617 9.3085C3.97142 12.4334 7.09587 14.4152 10.5 14.3085C11.5498 14.3171 12.5936 14.1481 13.587 13.8085L11.787 12.0085C11.3863 12.2049 10.9462 12.3075 10.5 12.3085C8.84746 12.2981 7.51037 10.961 7.5 9.3085C7.50048 8.86127 7.60309 8.42005 7.8 8.0185L5.536 5.7575ZM18.352 12.9185L16.96 11.5275C17.5456 10.8654 18.0256 10.1169 18.383 9.3085C17.0304 6.18208 13.9047 4.19958 10.5 4.3085C10.253 4.3085 10.005 4.3175 9.765 4.3345L8 2.5675C8.82163 2.39174 9.65979 2.3049 10.5 2.3085C12.1401 2.28815 13.7633 2.64212 15.246 3.3435C16.3953 3.90424 17.4274 4.6787 18.287 5.6255C19.1991 6.60246 19.9163 7.74458 20.4 8.9905L20.5 9.3085L20.395 9.6245C19.9268 10.8426 19.2342 11.962 18.353 12.9245L18.352 12.9185Z" fill="#646464"/>
</svg>
