<svg width="24" height="24" viewBox="0 0 24 24" fill="none" xmlns="http://www.w3.org/2000/svg">
<path d="M7 22C5.34315 22 4 20.6569 4 19V11C4 9.68703 4.84347 8.57105 6.01811 8.16437C6.54 7.98368 7 7.55228 7 7V6C7 4.61667 7.4875 3.4375 8.4625 2.4625C9.4375 1.4875 10.6167 1 12 1C13.3833 1 14.5625 1.4875 15.5375 2.4625C16.5125 3.4375 17 4.61667 17 6V7C17 7.55228 17.46 7.98368 17.9819 8.16437C19.1565 8.57105 20 9.68703 20 11V19C20 20.6569 18.6569 22 17 22H7ZM12 17C12.55 17 13.0208 16.8042 13.4125 16.4125C13.8042 16.0208 14 15.55 14 15C14 14.45 13.8042 13.9792 13.4125 13.5875C13.0208 13.1958 12.55 13 12 13C11.45 13 10.9792 13.1958 10.5875 13.5875C10.1958 13.9792 10 14.45 10 15C10 15.55 10.1958 16.0208 10.5875 16.4125C10.9792 16.8042 11.45 17 12 17ZM9 7C9 7.55228 9.44772 8 10 8H14C14.5523 8 15 7.55228 15 7V6C15 5.16667 14.7083 4.45833 14.125 3.875C13.5417 3.29167 12.8333 3 12 3C11.1667 3 10.4583 3.29167 9.875 3.875C9.29167 4.45833 9 5.16667 9 6V7Z" fill="#34414D" fill-opacity="0.6"/>
</svg>
