<svg width="170" height="27" viewBox="0 0 170 27" fill="none" xmlns="http://www.w3.org/2000/svg">
<path d="M25.8006 0.195848C25.8006 0.0877939 25.7167 0 25.6135 0H0.187054C0.0838519 0 0 0.0877939 0 0.195848V13.3042C0 13.4122 0.0838519 13.5 0.187054 13.5H6.25664C6.35984 13.5 6.44369 13.4122 6.44369 13.3042V6.94923C6.44369 6.84117 6.52755 6.75338 6.63075 6.75338H25.6006C25.7038 6.75338 25.7877 6.66558 25.7877 6.55753V0.195848H25.8006ZM19.5375 13.5068C19.4343 13.5068 19.3504 13.5945 19.3504 13.7026V20.0575C19.3504 20.1656 19.2666 20.2534 19.1634 20.2534H0.187054C0.0838519 20.2534 0 20.3412 0 20.4492V26.8042C0 26.9122 0.0838519 27 0.187054 27H25.6071C25.7103 27 25.7941 26.9122 25.7941 26.8042V13.7026C25.7941 13.5945 25.7103 13.5068 25.6071 13.5068H19.5375ZM47.6988 12.3587C46.5313 11.8252 44.9575 11.4942 42.9773 11.3727C41.339 11.2714 40.2102 10.981 39.6039 10.5083C38.9911 10.0355 38.688 9.37369 38.688 8.51601C38.688 7.71911 39.004 7.05728 39.6297 6.52376C40.2618 5.99025 41.1326 5.72011 42.2549 5.72011C43.4933 5.72011 44.4866 6.01051 45.2413 6.59805C45.9637 7.16533 46.4023 7.97574 46.5571 9.02927C46.57 9.0968 46.6216 9.14407 46.6861 9.14407H50.453C50.5304 9.14407 50.5885 9.07654 50.582 8.9955C50.3563 6.78714 49.5242 5.07854 48.0794 3.86969C46.6023 2.63382 44.6801 2.01926 42.3194 2.01926C40.881 2.01926 39.5974 2.29615 38.4622 2.84993C37.3334 3.4037 36.4369 4.18034 35.7789 5.17309C35.121 6.16583 34.7921 7.31391 34.7921 8.61056C34.7921 10.1368 35.1146 11.3524 35.766 12.2506C36.4175 13.1488 37.327 13.8107 38.4945 14.2294C39.6619 14.6481 41.0487 14.9115 42.6483 15.0128C44.2093 15.1208 45.3316 15.4112 46.0218 15.8907C46.7119 16.3702 47.0538 17.1063 47.0538 18.0855C47.0538 19.0513 46.6861 19.8212 45.9573 20.3952C45.2284 20.9692 44.1899 21.2596 42.8548 21.2596C41.6163 21.2596 40.5843 20.9625 39.7651 20.3614C38.9718 19.7806 38.488 18.8959 38.3139 17.7006C38.3074 17.6331 38.2494 17.5858 38.1849 17.5858H34.418C34.3406 17.5858 34.2825 17.6533 34.289 17.7276C34.4051 19.3147 34.8501 20.6451 35.6306 21.7121C36.4304 22.8129 37.456 23.6301 38.7073 24.1636C39.9586 24.6971 41.3325 24.9672 42.829 24.9672C44.4286 24.9672 45.8476 24.6701 47.086 24.069C48.3245 23.4747 49.292 22.6441 49.9822 21.5905C50.6723 20.5303 51.0142 19.3147 51.0142 17.9302C51.0142 16.6133 50.7562 15.4855 50.2337 14.5535C49.7177 13.6283 48.8727 12.8922 47.6988 12.3587ZM63.9854 8.75238C62.818 8.09055 61.5408 7.76638 60.1605 7.76638C58.7415 7.76638 57.4514 8.0973 56.2904 8.75238C55.1294 9.41421 54.2135 10.3799 53.5297 11.6563C52.8525 12.9327 52.5106 14.4927 52.5106 16.3364C52.5106 18.1801 52.8525 19.7401 53.5297 21.0165C54.207 22.2929 55.1294 23.2654 56.2904 23.934C57.4514 24.6026 58.7415 24.9402 60.1605 24.9402C61.5408 24.9402 62.818 24.6026 63.9854 23.934C65.1529 23.2654 66.0882 22.2929 66.7912 21.0165C67.4879 19.7401 67.8426 18.1801 67.8426 16.3364C67.8426 14.4927 67.4943 12.9327 66.7912 11.6563C66.0946 10.3799 65.1594 9.40745 63.9854 8.75238ZM62.9212 19.99C62.2439 20.8409 61.3215 21.2596 60.1605 21.2596C58.9995 21.2596 58.0835 20.8342 57.4192 19.99C56.7484 19.1391 56.413 17.9302 56.413 16.3634C56.413 14.7696 56.7548 13.554 57.4321 12.7031C58.1093 11.8522 59.0188 11.4335 60.1605 11.4335C61.3215 11.4335 62.2374 11.8589 62.9212 12.7031C63.5984 13.554 63.9403 14.7696 63.9403 16.3634C63.9403 17.937 63.6049 19.1458 62.9212 19.99ZM72.3255 2.18809C71.5127 2.91071 71.1128 4.01151 71.1128 5.504V7.94197C71.1128 8.01626 71.0548 8.07704 70.9838 8.07704H68.7843C68.7134 8.07704 68.6553 8.13782 68.6553 8.21211V11.6496C68.6553 11.7239 68.7134 11.7846 68.7843 11.7846H70.9838C71.0548 11.7846 71.1128 11.8454 71.1128 11.9197V24.5215C71.1128 24.5958 71.1709 24.6566 71.2418 24.6566H74.7636C74.8346 24.6566 74.8926 24.5958 74.8926 24.5215V11.913C74.8926 11.8387 74.9507 11.7779 75.0216 11.7779H78.8401C78.9111 11.7779 78.9691 11.7171 78.9691 11.6428V8.20535C78.9691 8.13107 78.9111 8.07029 78.8401 8.07029H75.0216C74.9507 8.07029 74.8926 8.0095 74.8926 7.93522V6.28064C74.8926 5.29465 75.2925 4.80165 76.0923 4.80165H78.8401C78.9111 4.80165 78.9691 4.74087 78.9691 4.66658V1.23587C78.9691 1.16158 78.9111 1.1008 78.8401 1.1008H75.3699C74.1509 1.1008 73.1382 1.46548 72.3255 2.18809ZM92.3016 9.39395C91.0309 8.30665 89.3151 7.75963 87.1608 7.75963C85.903 7.75963 84.7613 7.98249 83.7422 8.42146C82.7231 8.86043 81.891 9.502 81.2525 10.3394C80.6397 11.1431 80.2656 12.0953 80.1301 13.2029C80.1172 13.2839 80.1817 13.3514 80.2591 13.3514H83.8454C83.9099 13.3514 83.9615 13.3042 83.9744 13.2434C84.1099 12.6018 84.4195 12.1021 84.9161 11.7374C85.4386 11.3524 86.1739 11.1566 87.135 11.1566C89.3345 11.1566 90.4375 12.1223 90.4375 14.047V14.2901C90.4375 14.3644 90.3794 14.4252 90.3085 14.4252H86.2707C84.3098 14.4252 82.7553 14.898 81.6072 15.8367C80.4591 16.7821 79.885 18.0855 79.885 19.7604C79.885 20.8072 80.0656 21.6716 80.4268 22.3537C80.7881 23.0358 81.2525 23.576 81.8201 23.9677C82.3877 24.3662 83.0134 24.6431 83.6971 24.7984C84.3743 24.9537 85.0258 25.0348 85.645 25.0348C87.064 25.0348 88.2509 24.7444 89.199 24.1703C89.7086 23.8597 90.1472 23.5018 90.5213 23.083C90.5987 22.9952 90.7471 23.056 90.7471 23.1776V24.5283C90.7471 24.6026 90.8051 24.6633 90.8761 24.6633H94.0947C94.1656 24.6633 94.2237 24.6026 94.2237 24.5283V14.0403C94.2044 12.0278 93.5722 10.4812 92.3016 9.39395ZM88.238 21.3272C87.6188 21.6176 87.0189 21.7661 86.4384 21.7661C85.6192 21.7661 84.9613 21.5905 84.4582 21.2461C83.9551 20.9017 83.71 20.3749 83.71 19.6591C83.71 18.9702 83.9551 18.4435 84.4453 18.0923C84.9355 17.7344 85.7095 17.5588 86.7673 17.5588H90.2956C90.3665 17.5588 90.4246 17.6196 90.4246 17.6938V17.7816C90.4246 18.6798 90.2117 19.4227 89.7925 20.0103C89.3796 20.591 88.8572 21.03 88.238 21.3272ZM108.575 15.911C107.537 15.1478 105.815 14.6886 103.415 14.5468C102.493 14.5063 101.796 14.4185 101.319 14.2766C100.842 14.1416 100.513 13.9592 100.345 13.7296C100.177 13.5 100.087 13.2096 100.087 12.8517C100.087 12.3519 100.313 11.94 100.764 11.6293C101.216 11.3187 101.886 11.1566 102.789 11.1566C103.647 11.1566 104.357 11.3254 104.918 11.6563C105.447 11.9737 105.763 12.4397 105.86 13.0543C105.873 13.1151 105.924 13.1623 105.989 13.1623H109.575C109.652 13.1623 109.711 13.0948 109.704 13.0138C109.517 11.3727 108.827 10.0895 107.634 9.17784C106.402 8.23912 104.789 7.76638 102.789 7.76638C101.532 7.76638 100.416 7.98924 99.4483 8.42822C98.4808 8.86718 97.7197 9.47499 97.1714 10.2516C96.6232 11.0283 96.3458 11.94 96.3458 12.9867C96.3458 14.1618 96.6167 15.0938 97.1585 15.7826C97.7003 16.4715 98.4679 16.978 99.4677 17.2886C100.467 17.5993 101.667 17.7884 103.067 17.8559C104.363 17.9167 105.234 18.0923 105.679 18.3759C106.118 18.6596 106.337 19.0918 106.337 19.6793C106.337 20.2669 106.092 20.7329 105.602 21.0773C105.112 21.4217 104.338 21.5973 103.28 21.5973C102.338 21.5973 101.545 21.4352 100.893 21.1111C100.274 20.8004 99.9192 20.3209 99.816 19.6658C99.8031 19.6051 99.7515 19.5578 99.687 19.5578H96.1265C96.0491 19.5578 95.991 19.6253 95.9975 19.6996C96.0749 20.8679 96.4361 21.8404 97.0682 22.6036C97.7261 23.4004 98.5904 23.9947 99.6612 24.3932C100.732 24.7916 101.925 24.9875 103.247 24.9875C104.705 24.9875 105.95 24.7444 106.982 24.2649C108.014 23.7854 108.795 23.1236 109.336 22.2861C109.878 21.4487 110.149 20.51 110.149 19.4565C110.13 17.8492 109.614 16.6741 108.575 15.911ZM121.198 20.6991C120.56 21.0773 119.869 21.2664 119.128 21.2664C117.967 21.2664 117.051 20.8477 116.386 20.0103C115.716 19.1728 115.38 17.9572 115.38 16.3702C115.38 14.7764 115.722 13.5608 116.399 12.7099C117.077 11.8589 117.986 11.4402 119.128 11.4402C119.966 11.4402 120.676 11.6631 121.256 12.1021C121.811 12.5275 122.185 13.1826 122.372 14.0673C122.385 14.1281 122.437 14.1753 122.501 14.1753H126.12C126.197 14.1753 126.262 14.1011 126.249 14.02C125.971 11.9197 125.184 10.3597 123.901 9.33992C122.579 8.29315 120.972 7.77314 119.07 7.77314C117.728 7.77314 116.483 8.0973 115.335 8.74562C114.187 9.39395 113.258 10.3597 112.549 11.6361C111.839 12.9125 111.484 14.486 111.484 16.3499C111.484 18.2139 111.826 19.7806 112.503 21.0638C113.181 22.3402 114.097 23.3059 115.245 23.9677C116.393 24.6296 117.67 24.9537 119.07 24.9537C120.211 24.9537 121.288 24.7376 122.308 24.3122C123.327 23.8799 124.185 23.2181 124.888 22.3199C125.558 21.4555 126.029 20.3817 126.294 19.0918C126.313 19.0108 126.249 18.9297 126.165 18.9297H122.553C122.495 18.9297 122.443 18.9702 122.43 19.031C122.224 19.7739 121.811 20.3344 121.198 20.6991ZM139.239 8.75238C138.072 8.09055 136.795 7.76638 135.414 7.76638C133.995 7.76638 132.705 8.0973 131.544 8.75238C130.383 9.41421 129.467 10.3799 128.784 11.6563C128.106 12.9327 127.764 14.4927 127.764 16.3364C127.764 18.1801 128.106 19.7401 128.784 21.0165C129.461 22.2929 130.383 23.2654 131.544 23.934C132.705 24.6026 133.995 24.9402 135.414 24.9402C136.795 24.9402 138.072 24.6026 139.239 23.934C140.407 23.2654 141.342 22.2929 142.045 21.0165C142.742 19.7401 143.096 18.1801 143.096 16.3364C143.096 14.4927 142.748 12.9327 142.045 11.6563C141.342 10.3799 140.407 9.40745 139.239 8.75238ZM138.175 19.99C137.498 20.8409 136.575 21.2596 135.414 21.2596C134.253 21.2596 133.337 20.8342 132.673 19.99C132.002 19.1391 131.667 17.9302 131.667 16.3634C131.667 14.7696 132.009 13.554 132.686 12.7031C133.363 11.8522 134.273 11.4335 135.414 11.4335C136.575 11.4335 137.491 11.8589 138.175 12.7031C138.852 13.554 139.194 14.7696 139.194 16.3634C139.194 17.937 138.852 19.1458 138.175 19.99ZM149.45 8.93472C149.205 9.17784 148.973 9.46148 148.753 9.77889C148.682 9.88694 148.521 9.83292 148.521 9.69785V8.20535C148.521 8.13107 148.463 8.07029 148.392 8.07029H145.141C145.07 8.07029 145.012 8.13107 145.012 8.20535V24.5148C145.012 24.589 145.07 24.6498 145.141 24.6498H148.663C148.734 24.6498 148.792 24.589 148.792 24.5148V15.1411C148.792 14.3239 148.914 13.6688 149.153 13.1758C149.392 12.6828 149.714 12.3249 150.114 12.1088C150.514 11.8859 150.972 11.7779 151.495 11.7779H154.397C154.468 11.7779 154.526 11.7171 154.526 11.6428V8.20535C154.526 8.13107 154.468 8.07029 154.397 8.07029H152.004C150.882 8.07704 150.03 8.36068 149.45 8.93472ZM169.039 11.6698C168.4 10.3799 167.523 9.40745 166.414 8.75238C165.304 8.0973 164.059 7.76638 162.679 7.76638C161.337 7.76638 160.099 8.11081 158.957 8.79965C157.816 9.48849 156.9 10.4745 156.216 11.7509C155.526 13.0273 155.184 14.567 155.184 16.3702C155.184 18.2139 155.513 19.7739 156.171 21.0503C156.829 22.3267 157.719 23.2924 158.841 23.9542C159.964 24.6161 161.208 24.9402 162.589 24.9402C164.35 24.9402 165.885 24.4877 167.207 23.5895C168.491 22.7184 169.329 21.3812 169.723 19.578C169.742 19.497 169.677 19.416 169.594 19.416H165.949C165.891 19.416 165.846 19.4565 165.827 19.5105C165.62 20.1723 165.253 20.6518 164.717 20.9355C164.156 21.2394 163.479 21.3879 162.679 21.3879C161.46 21.3879 160.538 20.9557 159.906 20.0981C159.435 19.4565 159.138 18.592 159.022 17.5183C159.015 17.4372 159.073 17.3697 159.151 17.3697H169.832C169.897 17.3697 169.948 17.3224 169.961 17.2549C169.987 17.1266 170 16.9983 170 16.8767C170 16.7214 170 16.5458 170 16.3567C170 14.5198 169.677 12.9597 169.039 11.6698ZM162.647 11.1836C163.827 11.1836 164.692 11.5685 165.24 12.3452C165.595 12.8382 165.833 13.4595 165.956 14.1956C165.969 14.2766 165.911 14.3577 165.827 14.3577H159.319C159.235 14.3577 159.17 14.2766 159.196 14.1888C159.357 13.5338 159.596 12.9732 159.925 12.5208C160.557 11.6293 161.466 11.1836 162.647 11.1836Z" fill="white"/>
</svg>
