<svg width="191" height="40" viewBox="0 0 191 40" fill="none" xmlns="http://www.w3.org/2000/svg">
<path fill-rule="evenodd" clip-rule="evenodd" d="M0 16C0 10.3995 5.10897e-07 7.59921 1.09386 5.46009C2.05605 3.57847 3.59137 2.04867 5.47977 1.08994C7.62659 5.10897e-07 10.4369 0 16.0577 0H24.0865C29.7072 0 32.5175 5.10897e-07 34.6644 1.08994C36.5528 2.04867 38.0881 3.57847 39.0503 5.46009C40.1441 7.59921 40.1441 10.3995 40.1441 16V24C40.1441 29.6005 40.1441 32.4008 39.0503 34.5399C38.0881 36.4215 36.5528 37.9513 34.6644 38.9101C32.5175 40 29.7072 40 24.0865 40H16.0577C10.4369 40 7.62659 40 5.47977 38.9101C3.59137 37.9513 2.05605 36.4215 1.09386 34.5399C5.10897e-07 32.4008 0 29.6005 0 24V16ZM30.6368 29.1159C29.9189 29.768 28.5589 30.0942 26.5574 30.0942H24.654V32.408C24.654 32.6181 24.5695 32.8195 24.4191 32.968C24.2687 33.1166 24.0648 33.2 23.8521 33.2H22.3267C22.114 33.2 21.91 33.1166 21.7597 32.968C21.6093 32.8195 21.5248 32.6181 21.5248 32.408V30.0942H13.6783C11.631 30.0942 10.2443 29.768 9.51852 29.1159C8.79302 28.4637 8.43027 27.2355 8.43027 25.4309V24.8849L12.7387 24.0885V26.4089H27.3367V21.9049H14.4802C12.4482 21.9049 11.0729 21.5752 10.3551 20.9152C9.63688 20.2555 9.27765 19.0311 9.27765 17.2412V15.0349C9.27765 13.2605 9.63688 12.0435 10.3551 11.3839C11.0729 10.7242 12.4482 10.3942 14.4799 10.3942H15.2668V7.592C15.2668 7.38195 15.3513 7.1805 15.5016 7.03197C15.652 6.88344 15.856 6.8 16.0686 6.8H17.5941C17.8068 6.8 18.0107 6.88344 18.1611 7.03197C18.3115 7.1805 18.396 7.38195 18.396 7.592V10.3942H26.2596C28.2611 10.3942 29.6322 10.7088 30.3733 11.3383C31.1144 11.9675 31.4848 13.0785 31.4848 14.671V15.1487L27.2909 16.0356V13.9202H13.6322V18.0832H20.0948H26.5574C28.5895 18.0832 29.9571 18.4053 30.6597 19.0496C31.3626 19.6945 31.7139 20.919 31.7139 22.7236V25.4309C31.7139 27.2355 31.3549 28.4637 30.6368 29.1159Z" fill="white"/>
<path fill-rule="evenodd" clip-rule="evenodd" d="M61.9407 30.5148L67.9513 16.0125L73.8671 30.5145H77.2746L85.5096 9.99361H80.9899L75.7129 24.3064L69.9861 9.99394H66.5553L60.7815 24.3064L55.4095 9.99394H50.1802L58.5098 30.5148H61.9407ZM113.48 30.5148V26.676H96.2769V21.6287H106.145V18.0979H96.2769V13.6194H113.22V9.99394H91.2361V30.5148H113.48ZM125.667 30.5148V9.99394H120.698V30.5148H125.667Z" fill="white"/>
<path d="M185.11 30.5148C187.177 30.5148 188.581 30.175 189.323 29.4957C190.064 28.8164 190.435 27.537 190.435 25.6572V22.8371C190.435 20.9573 190.072 19.6818 189.346 19.01C188.62 18.3389 187.209 18.0033 185.11 18.0033H171.764V13.6668H185.868V15.8704L190.198 14.9466V14.4489C190.198 12.7901 189.815 11.6328 189.051 10.9774C188.285 10.3216 186.87 9.99394 184.803 9.99394H176.856V7.075C176.856 6.8562 176.769 6.64635 176.614 6.49164C176.459 6.33692 176.248 6.25 176.028 6.25H174.454C174.234 6.25 174.023 6.33692 173.868 6.49164C173.713 6.64635 173.626 6.8562 173.626 7.075V9.99394H172.64C170.541 9.99394 169.122 10.3377 168.38 11.0249C167.639 11.712 167.268 12.9797 167.268 14.828V17.1263C167.268 18.9907 167.639 20.2662 168.38 20.9533C169.122 21.6408 170.541 21.9843 172.64 21.9843H185.915V26.676H170.841V24.2589L166.392 25.0885V25.6572C166.392 27.537 166.767 28.8164 167.516 29.4957C168.266 30.175 169.697 30.5148 171.811 30.5148H180.087V32.925C180.087 33.1438 180.175 33.3536 180.33 33.5084C180.485 33.6631 180.696 33.75 180.915 33.75H182.49C182.71 33.75 182.92 33.6631 183.076 33.5084C183.231 33.3536 183.318 33.1438 183.318 32.925V30.5148H185.11Z" fill="white"/>
<path d="M152.975 30.5148C155.042 30.5148 156.446 30.175 157.187 29.4957C157.929 28.8164 158.299 27.537 158.299 25.6572V22.8371C158.299 20.9573 157.937 19.6818 157.211 19.01C156.485 18.3389 155.073 18.0033 152.975 18.0033H139.629V13.6668H153.732V15.8704L158.063 14.9466V14.4489C158.063 12.7901 157.68 11.6328 156.915 10.9774C156.15 10.3216 154.734 9.99394 152.667 9.99394H144.548V7.075C144.548 6.8562 144.46 6.64635 144.305 6.49164C144.15 6.33692 143.939 6.25 143.72 6.25H142.145C141.925 6.25 141.714 6.33692 141.559 6.49164C141.404 6.64635 141.317 6.8562 141.317 7.075V9.99394H140.504C138.406 9.99394 136.986 10.3377 136.245 11.0249C135.503 11.712 135.132 12.9797 135.132 14.828V17.1263C135.132 18.9907 135.503 20.2662 136.245 20.9533C136.986 21.6408 138.406 21.9843 140.504 21.9843H153.78V26.676H138.706V24.2589L134.257 25.0885V25.6572C134.257 27.537 134.632 28.8164 135.381 29.4957C136.131 30.175 137.562 30.5148 139.676 30.5148H147.778V32.925C147.778 33.1438 147.866 33.3536 148.021 33.5084C148.176 33.6631 148.387 33.75 148.606 33.75H150.182C150.401 33.75 150.612 33.6631 150.767 33.5084C150.922 33.3536 151.009 33.1438 151.009 32.925V30.5148H152.975Z" fill="white"/>
</svg>
